<?xml version="1.0" standalone="no"?>
<!DOCTYPE svg PUBLIC "-//W3C//DTD SVG 20010904//EN"
 "http://www.w3.org/TR/2001/REC-SVG-20010904/DTD/svg10.dtd">
<svg version="1.0" xmlns="http://www.w3.org/2000/svg"
 width="2000.000000pt" height="1600.000000pt" viewBox="0 0 2000.000000 1600.000000"
 preserveAspectRatio="xMidYMid meet">
<metadata>
Created by potrace 1.16, written by Peter Selinger 2001-2019
</metadata>
<g transform="translate(0.000000,1600.000000) scale(0.100000,-0.100000)"
fill="#000000" stroke="none">
<path d="M13531 13116 c-19 -23 -24 -86 -12 -133 14 -52 77 -121 118 -129 42
-8 51 11 13 31 -41 21 -93 94 -80 110 12 14 49 30 93 39 15 4 27 11 27 17 0
19 -29 21 -81 6 l-51 -15 4 26 c3 15 7 33 9 41 6 20 -25 25 -40 7z"/>
<path d="M7920 11570 l0 -1170 -1708 0 c-940 0 -1711 -2 -1714 -5 -3 -3 12
-74 34 -158 22 -84 49 -183 59 -222 19 -75 52 -200 92 -355 51 -191 131 -497
166 -635 70 -270 105 -400 126 -470 13 -44 26 -92 30 -107 l5 -28 3636 -2
3635 -3 -23 -31 c-13 -17 -32 -43 -43 -59 -11 -15 -41 -55 -66 -88 -77 -104
-150 -211 -222 -324 -14 -23 -29 -53 -33 -67 -8 -35 -16 -38 -98 -47 -39 -4
-111 -15 -161 -23 -49 -9 -114 -16 -142 -16 -29 0 -53 -4 -53 -8 0 -9 -171
-32 -230 -32 -20 0 -40 -4 -45 -9 -11 -10 -170 -31 -233 -31 -22 0 -44 -4 -47
-10 -8 -13 -71 -13 -93 1 -17 10 -108 1 -662 -72 -702 -91 -856 -133 -1040
-278 -85 -68 -115 -103 -151 -176 -56 -116 -59 -213 -23 -665 8 -102 23 -295
34 -430 20 -256 38 -451 70 -785 11 -110 22 -238 25 -285 3 -47 12 -148 20
-225 8 -77 21 -234 30 -350 9 -115 20 -214 25 -219 18 -19 30 8 30 71 0 37 2
64 5 61 12 -12 36 -258 41 -433 4 -104 10 -194 14 -200 11 -14 20 -107 31
-301 5 -93 13 -209 18 -259 6 -49 13 -137 17 -195 8 -115 12 -124 74 -135 19
-4 49 -13 65 -20 17 -7 47 -16 67 -20 21 -3 39 -9 41 -13 3 -4 -15 -52 -38
-107 l-43 -99 -209 -89 c-114 -48 -226 -96 -248 -106 -22 -10 -82 -35 -134
-56 -93 -39 -170 -97 -200 -153 -11 -20 -9 -22 16 -22 15 0 78 7 138 15 61 8
162 22 225 30 63 8 186 23 273 35 283 36 459 59 662 85 294 37 278 33 272 59
-3 11 -17 50 -30 86 -62 164 -99 272 -94 276 2 2 31 9 64 15 l60 11 12 516 c6
284 16 571 21 637 5 66 14 343 20 615 6 272 15 531 21 574 5 44 9 167 9 275 0
219 21 771 29 771 3 0 30 -25 59 -55 36 -36 72 -62 110 -77 56 -22 66 -23 483
-26 l427 -3 190 -382 c105 -210 217 -440 250 -512 33 -71 80 -173 105 -225 24
-52 69 -149 99 -215 52 -114 90 -194 229 -483 41 -86 65 -126 79 -129 11 -3
20 -14 20 -24 0 -11 4 -19 9 -19 5 0 14 -15 21 -33 7 -17 48 -105 91 -195 44
-90 79 -166 79 -169 0 -3 30 -67 66 -142 37 -75 75 -155 85 -178 l18 -43 196
0 197 0 -6 -28 c-3 -15 -13 -67 -22 -117 -10 -49 -23 -96 -28 -104 -6 -8 -103
-96 -216 -195 -113 -99 -210 -185 -216 -191 -6 -5 -37 -32 -68 -59 -71 -61
-73 -77 -8 -65 26 5 70 15 97 23 73 21 171 45 248 61 37 8 72 17 78 21 6 3 43
13 82 21 39 8 83 21 98 29 l27 14 -5 1172 c-6 1143 -7 1174 -26 1208 -11 19
-27 58 -37 85 -10 28 -27 73 -38 100 -51 128 -105 274 -115 310 -7 22 -15 42
-18 45 -4 3 -13 25 -20 50 -7 25 -16 50 -20 55 -4 6 -14 30 -22 55 -9 25 -34
92 -57 150 -22 58 -40 106 -40 107 0 1 207 1 460 1 l460 0 4 -32 c30 -207 37
-265 46 -352 5 -55 16 -143 24 -195 8 -52 17 -128 21 -169 4 -41 13 -118 20
-170 8 -52 19 -138 25 -190 6 -52 17 -149 26 -215 8 -66 24 -192 34 -280 18
-154 26 -221 70 -570 37 -287 50 -397 70 -570 11 -93 26 -217 35 -275 8 -58
21 -170 30 -250 9 -80 19 -161 23 -180 l8 -35 188 -48 c104 -26 190 -46 191
-45 4 5 -31 300 -81 693 -8 66 -24 190 -34 275 -27 232 -48 398 -70 570 -11
85 -27 211 -35 280 -9 69 -29 235 -46 370 -16 135 -38 317 -49 405 -20 169
-38 312 -70 565 -23 184 -50 403 -50 413 0 4 479 7 1064 7 648 0 1083 4 1115
10 56 10 125 40 157 68 40 34 82 103 89 145 3 23 15 87 25 142 10 55 22 170
25 255 5 96 12 158 19 162 6 4 124 8 262 8 189 0 254 -3 262 -12 5 -7 12 -35
14 -63 5 -55 30 -250 53 -420 8 -60 24 -184 35 -275 10 -91 33 -277 50 -415
17 -137 37 -308 45 -380 8 -71 19 -157 24 -190 5 -33 15 -105 21 -160 6 -55
20 -163 30 -240 10 -77 21 -169 25 -205 3 -36 12 -112 20 -170 15 -105 49
-382 85 -685 18 -154 27 -226 70 -570 41 -318 51 -403 70 -565 11 -91 24 -199
30 -240 5 -41 10 -83 10 -92 0 -17 16 -18 191 -18 l191 0 -6 38 c-7 44 -30
224 -56 447 -33 279 -50 416 -70 560 -10 77 -22 169 -25 205 -4 36 -13 110
-20 165 -7 55 -18 143 -24 195 -7 52 -18 149 -27 215 -8 66 -24 192 -34 280
-24 206 -45 373 -70 560 -10 83 -22 177 -25 210 -3 33 -12 107 -20 165 -8 58
-33 258 -55 445 -22 187 -44 367 -49 400 -6 33 -15 105 -21 160 -6 55 -19 165
-30 245 -10 80 -22 172 -25 205 -3 33 -12 107 -20 165 -14 98 -41 315 -85 690
-37 308 -78 633 -86 668 -4 22 -6 22 -189 22 l-185 0 5 -57 c3 -32 15 -123 25
-203 20 -145 33 -257 74 -597 l22 -183 -249 0 -250 0 6 113 c14 256 41 555 77
857 6 47 15 123 20 170 6 47 12 96 15 110 3 14 12 90 20 170 8 80 21 190 30
245 8 55 22 156 30 225 9 69 29 229 46 355 16 127 38 306 49 400 23 202 44
335 73 470 16 78 21 136 21 265 1 162 0 167 -30 242 -116 287 -361 393 -989
428 -115 7 -211 13 -213 14 -1 2 -9 29 -17 61 -40 151 -111 244 -235 304 -41
20 -164 83 -272 139 -109 56 -199 102 -201 102 -2 0 -9 -47 -16 -104 -9 -66
-12 -170 -9 -288 l4 -185 -370 -6 c-203 -4 -371 -5 -373 -3 -7 6 17 284 32
376 22 140 46 261 65 335 10 39 21 92 25 119 l7 49 -79 -6 c-77 -6 -258 -18
-543 -37 -80 -5 -155 -12 -166 -15 -21 -6 -22 -3 -28 112 -4 66 -11 125 -15
131 -6 10 -26 9 -92 -2 -120 -21 -180 -4 -250 71 -60 63 -86 115 -141 278 -23
70 -43 90 -95 100 -21 3 -49 13 -61 22 -23 14 -24 24 -7 66 7 16 -116 17
-2504 17 l-2511 0 0 -1170z m3701 784 c25 -23 24 -56 -3 -82 -35 -31 -68 -35
-105 -12 -27 16 -33 26 -33 55 0 27 6 38 28 50 32 18 87 13 113 -11z m242 -5
c22 -27 22 -41 -3 -72 -36 -46 -102 -43 -134 5 -47 71 82 134 137 67z m206 20
c57 -20 56 -83 -2 -114 l-37 -20 -37 20 c-21 11 -39 28 -41 38 -13 66 43 102
117 76z m-3369 -1062 l0 -892 85 -65 c47 -36 118 -90 157 -121 40 -31 94 -65
119 -76 25 -11 83 -53 130 -93 104 -89 119 -102 194 -166 33 -28 76 -57 95
-64 19 -7 91 -16 159 -19 81 -4 126 -10 128 -18 2 -6 -4 -13 -14 -16 -15 -3
-15 -5 -3 -10 14 -6 766 -193 1020 -253 248 -59 436 -105 451 -110 11 -3 39
29 95 106 43 61 90 126 104 145 276 375 340 454 340 417 0 -11 88 -101 145
-148 111 -91 231 -159 408 -234 l89 -37 -304 -305 c-293 -294 -521 -507 -602
-562 -21 -14 -49 -26 -62 -26 -73 0 -427 116 -704 230 -69 28 -142 58 -163 67
-21 8 -39 14 -41 12 -4 -4 -50 -173 -91 -337 -14 -52 -27 -102 -30 -113 -6
-19 -28 -19 -830 -19 -780 0 -825 1 -834 18 -5 10 -33 107 -61 217 -29 110
-63 241 -76 290 -12 50 -28 106 -33 125 -6 19 -11 36 -11 37 0 2 333 3 740 3
407 0 740 3 740 8 0 4 -64 40 -143 79 -166 85 -297 155 -419 224 l-86 50 -129
-3 c-123 -3 -130 -2 -178 24 -27 15 -62 37 -77 50 -15 13 -67 55 -117 93 -49
39 -94 80 -100 93 -14 29 -14 65 -1 78 7 7 2 18 -15 34 -30 29 -33 73 -6 93
20 13 20 13 1 43 -11 16 -20 38 -20 50 0 11 -11 31 -25 44 l-25 23 0 -326 c0
-211 -4 -327 -10 -327 -6 0 -10 119 -10 338 l0 339 -25 23 c-19 18 -27 21 -39
11 -9 -7 -40 -11 -82 -9 -56 2 -69 6 -72 21 -3 15 5 17 56 17 32 0 62 3 66 7
3 4 -10 24 -31 45 -25 26 -46 38 -65 38 -21 0 -28 5 -28 20 0 12 7 20 18 20 9
0 22 10 27 22 6 12 15 23 21 25 6 2 40 -19 76 -46 36 -28 68 -47 72 -44 3 4 6
402 6 885 0 584 3 877 10 873 7 -4 10 -314 10 -898z m3990 467 c0 -370 -2
-424 -15 -424 -13 0 -15 54 -15 423 0 233 3 427 6 430 4 4 11 4 15 1 5 -3 9
-196 9 -430z m-2800 -34 c0 -20 -5 -20 -347 -18 -322 3 -348 4 -351 21 -3 16
19 17 347 17 345 0 351 0 351 -20z m1358 3 c-3 -17 -36 -18 -506 -21 -497 -2
-502 -2 -502 18 0 20 6 20 506 20 476 0 505 -1 502 -17z m-1463 -108 c0 -19
-8 -20 -214 -23 -127 -1 -219 2 -224 7 -5 5 -7 17 -4 26 6 13 33 15 224 13
210 -3 218 -4 218 -23z m950 0 c0 -19 -8 -20 -164 -23 -165 -3 -189 2 -178 33
6 13 28 15 174 13 160 -3 168 -4 168 -23z m-695 -125 c0 -20 -7 -20 -350 -20
-343 0 -350 0 -350 20 0 20 7 20 350 20 343 0 350 0 350 -20z m1360 0 c0 -20
-7 -20 -505 -20 -498 0 -505 0 -505 20 0 20 7 20 505 20 498 0 505 0 505 -20z
m-1040 -150 c0 -20 -5 -20 -507 -18 -474 3 -508 4 -511 21 -3 16 26 17 507 17
505 0 511 0 511 -20z m840 0 c0 -20 -5 -20 -387 -18 -360 3 -388 4 -391 21 -3
16 21 17 387 17 385 0 391 0 391 -20z m-1340 -290 c0 -20 -7 -20 -330 -20
-323 0 -330 0 -330 20 0 20 7 20 330 20 323 0 330 0 330 -20z m495 -800 c0
-13 -33 -15 -222 -18 -219 -2 -223 -2 -223 18 0 20 4 20 223 18 189 -3 222 -5
222 -18z m145 -140 c0 -20 -7 -20 -295 -20 -288 0 -295 0 -295 20 0 20 7 20
295 20 288 0 295 0 295 -20z m900 0 c0 -20 -7 -20 -420 -20 -413 0 -420 0
-420 20 0 20 7 20 420 20 413 0 420 0 420 -20z m-6258 -181 c21 -79 45 -174
53 -211 8 -37 20 -79 26 -95 6 -15 16 -55 24 -88 7 -33 29 -121 48 -195 41
-154 135 -518 148 -570 13 -52 12 -65 -4 -51 -8 6 -19 37 -27 68 -7 32 -18 78
-26 103 -7 25 -20 72 -28 105 -8 33 -40 159 -71 280 -31 121 -70 270 -85 330
-16 61 -49 189 -74 287 -52 198 -50 191 -34 186 7 -3 29 -69 50 -149z m2027
134 c5 -10 14 -45 20 -78 7 -33 20 -94 31 -135 11 -41 30 -122 44 -180 14 -58
35 -145 46 -195 44 -183 62 -262 80 -340 10 -44 25 -107 33 -140 50 -191 66
-270 57 -279 -12 -12 -23 17 -54 149 -35 152 -66 284 -126 535 -72 302 -144
607 -154 653 -7 30 8 37 23 10z m4021 -83 c0 -20 -7 -20 -315 -20 -308 0 -315
0 -315 20 0 20 7 20 315 20 308 0 315 0 315 -20z m-4612 -267 c3 -10 -53 -13
-257 -13 -144 0 -261 4 -261 8 0 5 3 12 7 16 4 3 119 5 257 4 189 -2 250 -6
254 -15z m-515 -78 c-5 -16 -515 -13 -521 3 -3 10 51 12 260 10 169 -2 262 -7
261 -13z m6423 -447 c10 -114 8 -129 -39 -238 -24 -58 -47 -133 -58 -195 -23
-128 -46 -233 -54 -245 -4 -6 -72 -10 -165 -10 l-158 0 -7 30 c-10 45 2 105
72 370 36 135 72 273 80 308 l15 62 153 0 153 0 8 -82z m-3518 -2500 c17 -101
32 -301 32 -435 0 -61 4 -114 9 -117 11 -7 21 -106 32 -311 5 -88 13 -207 19
-265 5 -58 14 -161 19 -230 6 -69 14 -174 20 -235 6 -60 15 -173 22 -250 6
-77 13 -162 15 -190 2 -27 7 -83 10 -122 4 -47 3 -73 -4 -73 -5 0 -12 30 -15
68 -3 37 -17 191 -31 342 -14 151 -32 352 -41 445 -8 94 -21 233 -30 310 -8
77 -20 208 -25 290 -6 83 -15 193 -21 245 -10 103 -39 515 -39 568 0 57 16 34
28 -40z"/>
<path d="M2737 8076 c-8 -8 -17 -43 -20 -78 -13 -121 -67 -571 -97 -803 -21
-160 -39 -302 -70 -560 -21 -173 -39 -319 -71 -570 -11 -88 -26 -221 -35 -295
-8 -74 -19 -160 -24 -190 -5 -30 -14 -102 -20 -160 -6 -58 -17 -150 -25 -205
-8 -55 -21 -158 -29 -230 -9 -71 -29 -240 -45 -375 -16 -135 -37 -303 -46
-375 -8 -71 -24 -197 -35 -280 -22 -169 -43 -338 -70 -565 -48 -401 -71 -593
-85 -690 -8 -58 -19 -150 -25 -205 -6 -55 -17 -140 -24 -190 -8 -49 -17 -129
-21 -177 l-7 -88 184 0 185 0 21 163 c27 204 48 369 72 567 45 380 71 593 85
690 8 58 19 150 25 205 5 55 17 145 25 200 8 55 19 147 25 205 6 58 15 132 21
165 5 33 27 213 49 400 22 187 47 390 55 450 8 61 20 153 25 205 6 52 17 142
25 200 16 115 36 278 65 525 10 88 30 252 44 365 14 113 28 229 32 259 3 30
10 65 15 78 l9 23 1549 0 c852 0 1552 -4 1555 -8 5 -9 -14 -197 -39 -377 -15
-110 -30 -233 -65 -525 -54 -446 -120 -983 -171 -1380 -10 -85 -37 -306 -59
-490 -22 -184 -47 -382 -55 -440 -8 -58 -17 -130 -20 -160 -6 -55 -27 -224
-65 -520 -11 -85 -25 -198 -30 -250 -14 -125 -59 -487 -65 -522 l-4 -28 188 0
188 0 17 122 c8 68 25 204 36 303 11 99 23 187 25 195 2 8 11 80 20 160 8 80
22 192 30 250 14 102 26 195 65 520 47 395 71 593 85 690 8 58 17 132 20 165
6 57 19 163 65 520 12 88 23 178 25 200 19 164 78 650 90 735 8 58 17 132 20
165 3 33 15 125 25 205 11 80 24 190 30 245 6 55 15 127 21 160 5 33 27 213
49 400 22 187 47 387 55 445 8 58 19 152 25 210 6 58 18 146 26 195 7 50 14
107 14 128 l0 37 -179 0 c-106 0 -182 -4 -186 -10 -8 -13 -32 -168 -40 -260
-3 -41 -12 -118 -20 -170 -8 -52 -22 -156 -30 -230 -8 -74 -22 -187 -30 -250
-8 -63 -15 -118 -15 -122 0 -5 -703 -8 -1561 -8 l-1562 0 7 43 c3 23 11 92 16
152 6 61 15 137 21 170 5 33 18 134 29 225 10 91 27 224 36 297 9 72 14 138
11 147 -6 14 -30 16 -176 16 -133 0 -173 -3 -184 -14z"/>
<path d="M13636 3535 c-3 -148 -8 -384 -11 -522 -3 -139 -2 -253 2 -253 9 0
289 112 347 139 l39 18 -73 84 c-39 46 -82 95 -94 109 -12 14 -48 56 -80 94
l-58 69 60 20 60 20 -15 46 c-8 25 -24 64 -34 87 -10 22 -19 47 -19 55 0 8 -4
19 -9 24 -5 6 -16 30 -25 55 -8 25 -31 86 -50 135 l-35 90 -5 -270z"/>
</g>
</svg>
